<svg width="35" height="41" viewBox="0 0 35 41" fill="none" xmlns="http://www.w3.org/2000/svg">
<g clip-path="url(#clip0_288_1797)">
<path d="M34.7274 0.958252H0.677734V40.7913H34.7274V0.958252Z" fill="black"/>
<path d="M17.7026 26.134C11.6109 26.134 6.66302 32.2956 6.66302 39.8888C6.66302 40.2 6.66303 40.4801 6.68963 40.7601H28.7421C28.7687 40.4801 28.7687 40.1689 28.7687 39.8888C28.7421 32.2956 23.7942 26.134 17.7026 26.134Z" fill="#9AB7D5"/>
<path d="M17.7026 29.6505C14.0848 29.6505 11.132 34.3806 11.132 40.2311C11.132 40.4178 11.132 40.6045 11.132 40.7913H24.2465C24.2465 40.6045 24.2465 40.4178 24.2465 40.2311C24.2731 34.3806 21.3203 29.6505 17.7026 29.6505Z" fill="#EFFCF7"/>
<path d="M17.7026 32.9491C21.1607 33.0425 25.8425 29.9617 27.1194 28.5302C27.3322 28.2812 27.8376 28.1879 28.2101 28.3746C28.0771 27.5032 27.146 26.7564 27.146 26.7564C28.1303 26.9742 28.8751 27.8455 28.8751 27.8455C28.4495 25.885 27.1992 24.9203 27.1992 24.9203C27.7046 24.9825 28.0504 25.2315 28.3431 25.5427C28.0238 23.5199 26.3746 21.466 26.3746 19.6611C26.3746 18.6964 26.7204 17.5139 27.0662 14.4953C27.412 11.4767 25.7627 11.4144 25.7627 11.4144C23.5016 11.3522 21.1607 13.8106 21.1607 13.8106C19.6178 13.2505 15.8405 13.2505 14.2976 13.8106C14.2976 13.8106 11.9567 11.3522 9.69557 11.4144C9.69557 11.4144 8.04629 11.4455 8.39211 14.4953C8.73792 17.5139 9.08374 18.6964 9.08374 19.6611C9.08374 21.466 7.43446 23.5199 7.11525 25.5427C7.40786 25.2315 7.75368 24.9825 8.2591 24.9203C8.2591 24.9203 7.00884 25.885 6.58322 27.8455C6.58322 27.8455 7.32806 26.9742 8.3123 26.7564C8.3123 26.7564 7.38126 27.5032 7.24825 28.3746C7.62067 28.219 8.12609 28.3123 8.3389 28.5302C9.56256 29.9617 14.2444 33.0425 17.7026 32.9491Z" fill="#B7CDE2"/>
<path d="M15.9203 26.8808C15.9203 26.8808 16.9045 25.2004 15.6809 21.6527C15.6809 21.6527 11.2917 22.0573 10.0946 28.748C10.0946 28.748 11.6109 30.833 16.1331 31.9533L15.9203 26.8808Z" fill="#244055"/>
<path d="M11.6109 17.2027C11.6109 17.2027 10.9458 15.9579 10.0148 16.0823C10.0148 16.0823 10.2542 15.3044 11.0256 14.962C11.0256 14.962 10.5734 14.3085 9.77538 14.4019C9.77538 14.4019 9.96158 13.9351 10.4138 13.7484C10.4138 13.7484 9.66897 12.9704 9.19015 13.126C8.71132 13.2505 8.76453 14.3708 8.87093 15.1176C8.97734 15.8645 9.61577 19.0076 9.69557 19.5677C9.69557 19.5366 10.5734 17.6694 11.6109 17.2027Z" fill="#7CA9C8"/>
<path d="M19.4848 26.8808C19.4848 26.8808 18.5006 25.2004 19.7242 21.6527C19.7242 21.6527 24.1134 22.0573 25.3105 28.748C25.3105 28.748 23.7942 30.833 19.272 31.9533L19.4848 26.8808Z" fill="#244055"/>
<path d="M23.7943 17.2027C23.7943 17.2027 24.4593 15.9579 25.3903 16.0823C25.3903 16.0823 25.1509 15.3044 24.3795 14.962C24.3795 14.962 24.8317 14.3085 25.6297 14.4019C25.6297 14.4019 25.4435 13.9351 24.9913 13.7484C24.9913 13.7484 25.7361 12.9704 26.215 13.126C26.6938 13.2505 26.6406 14.3708 26.5342 15.1176C26.4278 15.8645 25.7893 19.0076 25.7095 19.5677C25.7095 19.5366 24.8317 17.6694 23.7943 17.2027Z" fill="#7CA9C8"/>
<path d="M21.879 29.4637C21.879 29.4637 20.4691 32.4512 17.7026 32.4512C14.936 32.4512 13.5262 29.4637 13.5262 29.4637C15.3084 25.9472 17.7026 24.9825 17.7026 24.9825C17.7026 24.9825 20.0967 25.9472 21.879 29.4637Z" fill="#EFFCF7"/>
<path d="M19.4848 29.3081C19.4848 30.0861 18.6868 30.7085 17.7025 30.7085C16.7183 30.7085 15.9203 30.0861 15.9203 29.3081C15.9203 28.5302 16.7183 27.9078 17.7025 27.9078C18.6868 27.9078 19.4848 28.5302 19.4848 29.3081Z" fill="black"/>
<path d="M15.3882 24.0178C15.3882 24.4846 15.0158 24.8581 14.5636 24.8581C14.1114 24.8581 13.739 24.4846 13.739 24.0178C13.739 23.551 14.1114 23.1776 14.5636 23.1776C15.0158 23.1776 15.3882 23.551 15.3882 24.0178Z" fill="black"/>
<path d="M21.746 24.0178C21.746 24.4846 21.3735 24.8581 20.9213 24.8581C20.4691 24.8581 20.0967 24.4846 20.0967 24.0178C20.0967 23.551 20.4691 23.1776 20.9213 23.1776C21.3735 23.1776 21.746 23.551 21.746 24.0178Z" fill="black"/>
<path d="M17.7026 32.1089C16.7981 32.1089 15.9735 31.611 15.5213 30.8019C15.4947 30.7396 15.4947 30.6463 15.5479 30.6152C15.6011 30.584 15.6809 30.584 15.7075 30.6463C16.1331 31.362 16.8779 31.8288 17.7026 31.8288C18.5272 31.8288 19.272 31.3932 19.6977 30.6463C19.7243 30.584 19.8041 30.584 19.8573 30.6152C19.9105 30.6463 19.9105 30.7396 19.8839 30.8019C19.4316 31.611 18.607 32.1089 17.7026 32.1089Z" fill="black"/>
<path d="M12.7813 14.8064C12.9941 14.4641 12.9941 14.1529 13.0207 13.8728C13.0473 13.5305 12.9941 13.0637 12.7813 12.4725C12.9675 12.5658 13.2069 12.6281 13.4995 12.7214C13.2601 12.348 13.1803 11.7878 13.1803 11.7878C13.3399 11.9746 14.0848 12.1302 14.0848 12.1302C13.6325 11.7878 13.4729 10.6675 13.4729 10.6675C13.7389 11.041 14.9892 11.321 14.9892 11.321C14.7498 11.1343 14.6966 10.5119 14.6966 10.5119C15.601 11.4455 18.2346 11.4144 19.7508 11.9434C21.2671 12.4414 21.5863 13.1571 21.8257 13.6239C22.0385 14.0596 22.2248 14.9309 22.2248 14.9309C22.7302 15.2732 23.1824 16.0201 23.3154 17.047C23.3154 17.047 22.8632 16.4247 22.5972 16.1446C21.9853 15.4599 21.4267 15.0554 20.2563 14.8376C19.0858 14.5886 17.5961 14.7131 17.5961 14.7131C17.5961 14.7131 16.1597 14.5886 14.9626 14.7753C13.872 14.9309 13.2601 14.9932 12.5951 15.9579C12.1429 16.6114 12.0365 16.8603 12.0365 16.8603C12.1163 16.1135 12.3557 15.5533 12.7813 14.8064Z" fill="#182736"/>
<path d="M25.1775 24.2357H25.1509C25.0179 23.6755 24.7785 23.2087 24.3795 22.8664C23.6347 22.2751 22.411 21.9639 21.2671 21.9639C18.8996 21.8395 16.5321 21.8395 14.1646 21.9639C13.0207 21.9639 11.7705 22.2751 11.0523 22.8664C10.7596 23.0842 10.5734 23.4266 10.4138 23.7689C10.3606 23.9245 10.3074 24.0801 10.2808 24.2357H10.2542C10.0946 24.2357 9.935 24.3913 9.935 24.6091C9.935 24.7958 10.0414 24.9203 10.201 24.9514C10.1744 26.1651 10.6266 27.5032 11.4779 28.1567C12.6483 29.0592 14.138 28.8414 15.3351 27.6899C16.6651 26.3829 17.1439 24.9825 17.0375 23.9245C17.5164 23.9245 17.9686 23.9245 18.4474 23.9245C18.341 24.9825 18.8198 26.3829 20.1499 27.6899C21.3469 28.8725 22.8366 29.0592 24.0071 28.1567C24.8317 27.5032 25.3105 26.1651 25.2839 24.9514C25.4169 24.9203 25.5499 24.7958 25.5499 24.6091C25.4967 24.4224 25.3637 24.2357 25.1775 24.2357ZM24.4327 23.8H18.9528C18.9794 23.6133 19.0592 23.4577 19.139 23.3332H24.0071C24.0337 23.3643 24.0603 23.3643 24.0869 23.3954C24.2199 23.4888 24.3263 23.6133 24.4327 23.8ZM24.7253 25.1381C24.7253 25.2937 24.6987 25.4493 24.6987 25.5738H19.2454C19.1656 25.4182 19.1124 25.2626 19.0592 25.107L24.7253 25.1381ZM19.7775 26.4763C19.6711 26.3207 19.5647 26.1651 19.4583 26.0095H24.6189C24.5923 26.1651 24.5391 26.3207 24.4859 26.4763H19.7775ZM18.9528 24.6713C18.9262 24.5469 18.9262 24.4224 18.8996 24.2979C18.8996 24.2668 18.8996 24.2357 18.8996 24.2045H24.5923C24.6455 24.3601 24.6721 24.5157 24.6987 24.6713H18.9528ZM23.209 22.8975H19.5647C19.9637 22.6797 20.5489 22.5552 21.2405 22.5552C21.9322 22.5552 22.6238 22.6797 23.209 22.8975ZM14.1646 22.5552C14.8562 22.5552 15.4415 22.6797 15.8405 22.8975H12.1961C12.7813 22.6797 13.473 22.5552 14.1646 22.5552ZM11.3183 23.3643C11.3449 23.3332 11.3715 23.3332 11.3981 23.3021H16.2661C16.3459 23.4266 16.3991 23.6133 16.4523 23.7689H10.9724C11.0789 23.6133 11.1853 23.4888 11.3183 23.3643ZM16.5055 24.2979C16.5055 24.4224 16.4789 24.5469 16.4523 24.6713H10.7064C10.733 24.5157 10.7596 24.329 10.8128 24.2045H16.5055C16.5055 24.2357 16.5055 24.2668 16.5055 24.2979ZM10.9192 26.4763C10.866 26.3207 10.8128 26.1651 10.7862 26.0095H15.9469C15.8405 26.1651 15.7607 26.3207 15.6277 26.4763H10.9192ZM10.7064 25.5738C10.6798 25.4182 10.6798 25.2626 10.6798 25.1381V25.107H16.3459C16.2927 25.2626 16.2395 25.4182 16.1597 25.5738H10.7064ZM11.1055 26.8808H15.2819C15.1754 27.0053 15.069 27.0987 14.9626 27.2231C14.9094 27.2854 14.8562 27.3165 14.803 27.3787H11.4247C11.3183 27.2231 11.2119 27.0675 11.1055 26.8808ZM13.0473 28.1256C12.6483 28.1256 12.2759 28.0011 11.9301 27.7833H14.2444C13.8454 28.0011 13.4464 28.1256 13.0473 28.1256ZM16.8513 23.271C16.7715 23.0531 16.6651 22.8975 16.5587 22.7419C16.5055 22.6797 16.4257 22.5863 16.3459 22.5241C17.2503 22.493 18.1814 22.493 19.0858 22.5241C19.006 22.5863 18.9262 22.6486 18.873 22.7419C18.74 22.8975 18.6336 23.0842 18.5804 23.271C17.9952 23.271 17.41 23.271 16.8513 23.271ZM21.1873 27.7833H23.5017C23.1558 28.0011 22.7834 28.1256 22.3844 28.1256C21.9588 28.1256 21.5598 28.0011 21.1873 27.7833ZM23.9805 27.3787H20.6021C20.5489 27.3476 20.4957 27.2854 20.4425 27.2231C20.3361 27.0987 20.2297 27.0053 20.1233 26.8808H24.2997C24.1933 27.0675 24.0869 27.2231 23.9805 27.3787Z" fill="#38CC85"/>
</g>
<defs>
<clipPath id="clip0_288_1797">
<rect x="0.677734" y="0.958252" width="34.0496" height="39.833" rx="4" fill="white"/>
</clipPath>
</defs>
</svg>
